# File created by Blade
# Date/Time:  Tue Apr 07 21:25:57 2015
# Frame Rate: 120.000 fps
#------------------------------------------------------
:FULLY-SPECIFIED
:DEGREES
665
root -10.259366 31.872260 6.115340 8.659100 -73.789906 6.329017
Spine -15.405748 1.740549 -7.306204
Head 25.213954 -10.073846 0.344351
LeftShoulder -25.915381 45.744309 16.977673
LeftArm 60.199620 -57.251254 -80.413103
LeftForeArm 0.418423 -0.000000 8.341002
LeftHand 14.316107 0.000000 25.409815
LeftHandThumb1 -26.253704 0.000000 33.147579
RightShoulder -5.365395 10.046772 -31.612117
RightArm 29.219868 10.981351 53.234762
RightForeArm -14.849992 -0.000000 19.299839
RightHand 12.325378 -0.000000 -14.051082
RightHandThumb1 -24.326973 -0.000000 -32.862282
LeftUpLeg -33.060023 -5.984962 -5.000262
LeftLeg 6.013971 -0.000000 -0.000000
LeftFoot 9.834868 23.004717 -4.751620
LeftToeBase -10.399938 -0.000000 0.000000
RightUpLeg 0.678747 4.115685 6.794968
RightLeg 10.176703 -0.000000 -0.000000
RightFoot -15.959360 -17.719425 5.548411
RightToeBase -14.880985 -0.000000 0.000000
666
root -10.437087 31.879427 6.199228 7.467437 -73.661888 7.798244
Spine -15.764742 1.347673 -7.582130
Head 24.541276 -9.669518 0.297935
LeftShoulder -26.047074 45.656091 16.880670
LeftArm 60.810456 -57.755775 -81.012343
LeftForeArm 0.568226 -0.000000 8.641406
LeftHand 14.298786 -0.000000 25.945986
LeftHandThumb1 -26.253704 0.000000 33.147579
RightShoulder -5.404818 10.038554 -31.629699
RightArm 29.055004 11.149195 53.169084
RightForeArm -15.015838 -0.000000 19.238903
RightHand 12.072213 0.000000 -13.746094
RightHandThumb1 -24.326973 -0.000000 -32.862282
LeftUpLeg -32.954072 -6.205953 -5.364945
LeftLeg 6.145430 -0.000000 -0.000000
LeftFoot 8.898557 22.715308 -5.534655
LeftToeBase -10.155744 -0.000000 0.000000
RightUpLeg 0.675552 4.128091 6.325357
RightLeg 10.399349 -0.000000 -0.000000
RightFoot -15.935958 -17.685560 5.590356
RightToeBase -15.122064 -0.000000 0.000000
667
root -10.594584 31.899443 6.278553 6.345096 -73.518755 9.243438
Spine -16.105879 0.986902 -7.854332
Head 23.825733 -9.334422 0.238300
LeftShoulder -26.189048 45.632714 16.711592
LeftArm 61.083560 -58.078400 -81.225998
LeftForeArm 0.367099 -0.000000 8.998726
LeftHand 14.012561 -0.000000 26.248567
LeftHandThumb1 -26.253704 0.000000 33.147579
RightShoulder -5.436248 9.884990 -31.624157
RightArm 28.963291 11.376478 53.086366
RightForeArm -15.080139 0.000000 19.137145
RightHand 12.085597 -0.000000 -13.474262
RightHandThumb1 -24.326973 -0.000000 -32.862282
LeftUpLeg -32.943318 -6.445121 -5.715263
LeftLeg 6.298998 -0.000000 -0.000000
LeftFoot 8.213389 22.448173 -6.257790
LeftToeBase -10.105775 -0.000000 0.000000
RightUpLeg 0.522134 4.157644 5.858692
RightLeg 10.744096 -0.000000 -0.000000
RightFoot -15.870319 -17.662647 5.708928
RightToeBase -14.487083 -0.000000 0.000000
668
root -10.736751 31.930818 6.351218 5.452005 -73.318998 10.451974
Spine -16.381049 0.697291 -8.064572
Head 23.052556 -9.095296 0.154268
LeftShoulder -26.176991 45.516297 16.627280
LeftArm 61.273725 -58.330727 -81.403479
LeftForeArm 0.269743 -0.000000 9.256308
LeftHand 13.959257 -0.000000 26.780526
LeftHandThumb1 -26.253704 0.000000 33.147579
RightShoulder -5.492526 9.695259 -31.617173
RightArm 28.775439 11.550099 52.900476
RightForeArm -14.987631 -0.000000 19.113852
RightHand 11.812433 -0.000000 -13.282526
RightHandThumb1 -24.326973 -0.000000 -32.862282
LeftUpLeg -32.939503 -6.633067 -6.049258
LeftLeg 6.420503 -0.000000 -0.000000
LeftFoot 7.723864 22.131289 -6.962990
LeftToeBase -10.099294 -0.000000 0.000000
RightUpLeg 0.261967 4.099286 5.475996
RightLeg 11.226762 -0.000000 -0.000000
RightFoot -15.651599 -17.682840 5.718905
RightToeBase -15.417557 -0.000000 0.000000
669
root -10.870896 31.970026 6.416329 4.868368 -73.096729 11.282927
Spine -16.557553 0.471251 -8.181519
Head 22.286931 -8.937724 0.063063
LeftShoulder -26.216584 45.438671 16.489133
LeftArm 61.670154 -58.420308 -81.737076
LeftForeArm 0.333917 -0.000000 9.401865
LeftHand 13.966892 -0.000000 26.953798
LeftHandThumb1 -26.253704 0.000000 33.147579
RightShoulder -5.524332 9.455324 -31.576538
RightArm 28.523610 11.712203 52.623516
RightForeArm -14.803568 -0.000000 19.113985
RightHand 11.511595 -0.000000 -13.175793
RightHandThumb1 -24.326973 -0.000000 -32.862282
LeftUpLeg -32.870744 -6.634988 -6.393920
LeftLeg 6.510969 -0.000000 -0.000000
LeftFoot 7.408944 21.657426 -7.484345
LeftToeBase -10.090776 -0.000000 0.000000
RightUpLeg 0.032016 4.046258 5.227732
RightLeg 11.676931 -0.000000 -0.000000
RightFoot -15.256791 -17.923155 5.713684
RightToeBase -15.011139 -0.000000 0.000000
670
root -11.003806 32.016704 6.477139 4.508134 -72.874863 11.836486
Spine -16.675212 0.347048 -8.229686
Head 21.556432 -8.826073 -0.069772
LeftShoulder -26.204365 45.435466 16.343205
LeftArm 62.319676 -58.468759 -82.342782
LeftForeArm 0.306297 -0.000000 9.451055
LeftHand 14.104317 0.000000 27.333112
LeftHandThumb1 -26.253704 0.000000 33.147579
RightShoulder -5.571008 9.172639 -31.549412
RightArm 28.183246 11.896364 52.339922
RightForeArm -14.679830 -0.000000 19.129181
RightHand 11.466258 -0.000000 -13.104709
RightHandThumb1 -24.326973 -0.000000 -32.862282
LeftUpLeg -32.715107 -6.474527 -6.738937
LeftLeg 6.526152 -0.000000 -0.000000
LeftFoot 7.168553 21.028561 -7.977465
LeftToeBase -10.081269 -0.000000 0.000000
RightUpLeg -0.171722 3.927745 5.071025
RightLeg 12.092115 -0.000000 -0.000000
RightFoot -14.701816 -18.102136 5.699708
RightToeBase -15.898671 -0.000000 0.000000
671
root -11.135824 32.069063 6.533544 4.464331 -72.671199 12.003306
Spine -16.726834 0.292517 -8.145699
Head 20.852545 -8.718814 -0.258129
LeftShoulder -26.127614 45.502562 16.221084
LeftArm 62.729432 -58.391614 -82.747931
LeftForeArm 0.274534 -0.000000 9.425123
LeftHand 14.115025 -0.000000 27.223950
LeftHandThumb1 -26.253704 0.000000 33.147579
RightShoulder -5.597397 8.898359 -31.541476
RightArm 27.790339 11.967009 51.996609
RightForeArm -14.448604 -0.000000 19.134926
RightHand 11.297021 -0.000000 -13.160188
RightHandThumb1 -24.326973 -0.000000 -32.862282
LeftUpLeg -32.478442 -6.273461 -6.970302
LeftLeg 6.458088 -0.000000 -0.000000
LeftFoot 6.939839 20.432277 -8.525758
LeftToeBase -9.937809 -0.000000 0.000000
RightUpLeg -0.315428 3.791687 5.048661
RightLeg 12.447856 -0.000000 -0.000000
RightFoot -14.083204 -18.378230 5.658369
RightToeBase -16.303307 -0.000000 0.000000
672
root -11.268628 32.127526 6.588066 4.543278 -72.528902 12.020433
Spine -16.768589 0.328480 -8.026295
Head 20.197132 -8.617999 -0.454130
LeftShoulder -25.992951 45.578359 16.157395
LeftArm 62.592319 -58.145724 -82.587220
LeftForeArm 0.052415 -0.000000 9.327800
LeftHand 14.278225 -0.000000 27.238503
LeftHandThumb1 -26.253704 0.000000 33.147579
RightShoulder -5.642386 8.494523 -31.508112
RightArm 27.490829 12.021145 51.633190
RightForeArm -14.299822 -0.000000 19.084632
RightHand 11.240605 -0.000000 -13.201567
RightHandThumb1 -24.326973 -0.000000 -32.862282
LeftUpLeg -32.214949 -6.039812 -7.139159
LeftLeg 6.361422 -0.000000 -0.000000
LeftFoot 6.724910 19.884135 -9.089399
LeftToeBase -9.774663 -0.000000 0.000000
RightUpLeg -0.428708 3.593077 5.072799
RightLeg 12.751042 -0.000000 -0.000000
RightFoot -13.390353 -18.551114 5.564146
RightToeBase -16.490286 -0.000000 0.000000
673
root -11.399143 32.188170 6.641229 4.693335 -72.432432 11.881133
Spine -16.738823 0.431801 -7.864603
Head 19.602127 -8.516634 -0.633325
LeftShoulder -25.981958 45.804303 16.002612
LeftArm 62.765636 -57.786124 -82.683072
LeftForeArm -0.119170 -0.000000 9.177653
LeftHand 14.214227 0.000000 27.111671
LeftHandThumb1 -26.253704 0.000000 33.147579
RightShoulder -5.611375 8.149175 -31.471326
RightArm 27.053161 12.128070 51.264321
RightForeArm -14.496532 -0.000000 19.027479
RightHand 11.172101 -0.000000 -12.827781
RightHandThumb1 -24.326973 -0.000000 -32.862282
LeftUpLeg -31.840617 -5.927997 -7.171793
LeftLeg 6.143759 -0.000000 -0.000000
LeftFoot 6.570763 19.561971 -9.669948
LeftToeBase -9.697753 -0.000000 0.000000
RightUpLeg -0.405209 3.364372 5.147977
RightLeg 12.929960 -0.000000 -0.000000
RightFoot -12.598602 -18.614921 5.701503
RightToeBase -17.320205 -0.000000 0.000000
674
root -11.524418 32.249112 6.689433 4.952080 -72.364801 11.605625
Spine -16.710104 0.580990 -7.664074
Head 19.101631 -8.394735 -0.836148
LeftShoulder -25.779319 45.906241 16.044308
LeftArm 62.305372 -57.350945 -82.227154
LeftForeArm -0.435788 -0.000000 8.975772
LeftHand 14.053720 -0.000000 26.672308
LeftHandThumb1 -26.253704 0.000000 33.147579
RightShoulder -5.528042 7.750551 -31.412684
RightArm 26.632763 12.165129 50.852506
RightForeArm -14.390019 -0.000000 18.936248
RightHand 11.161778 -0.000000 -12.551497
RightHandThumb1 -24.326973 -0.000000 -32.862282
LeftUpLeg -31.437223 -5.900374 -7.076887
LeftLeg 5.886507 -0.000000 -0.000000
LeftFoot 6.315070 19.312942 -10.498303
LeftToeBase -9.397665 -0.000000 0.000000
RightUpLeg -0.338192 3.141064 5.269499
RightLeg 13.029323 -0.000000 -0.000000
RightFoot -11.811252 -18.745080 5.670946
RightToeBase -17.635425 -0.000000 0.000000
